<?xml version="1.0" encoding="UTF-8" standalone="no"?>
<!DOCTYPE svg PUBLIC "-//W3C//DTD SVG 1.1//EN" "http://www.w3.org/Graphics/SVG/1.1/DTD/svg11.dtd">
<svg width="100%" height="100%" viewBox="0 0 3544 3544" version="1.1" xmlns="http://www.w3.org/2000/svg" xmlns:xlink="http://www.w3.org/1999/xlink" xml:space="preserve" xmlns:serif="http://www.serif.com/" style="fill-rule:evenodd;clip-rule:evenodd;stroke-linejoin:round;stroke-miterlimit:2;">
    <g id="Herrikonekt_Trebol" transform="matrix(1,0,0,1,17.716535,-708.661417)">
        <rect x="-17.717" y="708.661" width="3543.307" height="3543.307" style="fill:none;"/>
        <g transform="matrix(35.719984,0,0,35.719984,-60881.142358,-21317.165399)">
            <path d="M1744.161,651.784C1743.005,648.674 1734.709,631.378 1753.052,629.442C1757.926,628.927 1761.896,633.078 1762.875,634.74C1765.61,639.386 1755.318,656.681 1761.151,655.478C1771.992,653.243 1778.957,642.185 1785.632,650.68C1796.194,664.123 1785.229,669.55 1778.452,670.457C1767.667,671.901 1761.123,666.504 1758.611,670.26C1758.605,673.792 1780.107,679.04 1781.459,691.534C1782.574,701.843 1769.236,703.531 1766.358,702.947C1757.755,701.2 1755.378,681.655 1752.066,681.007C1748.272,681.181 1749.615,701.374 1733.829,701.942C1726.496,702.206 1719.074,688.362 1726.754,682.55C1728.019,681.592 1745.148,673.844 1744.011,671.478C1743.296,669.992 1719.312,677.006 1717.425,669.615C1714.564,658.405 1726.194,646.183 1736.72,655.028C1742.973,660.282 1749.116,657.84 1744.161,651.784Z" style="fill:rgb(179,228,163);"/>
        </g>
    </g>
</svg>
