<?xml version="1.0" encoding="UTF-8" standalone="no"?>
<!DOCTYPE svg PUBLIC "-//W3C//DTD SVG 1.1//EN" "http://www.w3.org/Graphics/SVG/1.1/DTD/svg11.dtd">
<svg width="100%" height="100%" viewBox="0 0 108 113" version="1.1" xmlns="http://www.w3.org/2000/svg" xmlns:xlink="http://www.w3.org/1999/xlink" xml:space="preserve" xmlns:serif="http://www.serif.com/" style="fill-rule:evenodd;clip-rule:evenodd;stroke-linecap:round;stroke-linejoin:round;stroke-miterlimit:1.5;">
    <g transform="matrix(1,0,0,1,-1434.324421,-2292.980337)">
        <g transform="matrix(1,0,0,1,0,2045.788454)">
            <g transform="matrix(-0.348054,0,0,-0.348054,1953.794189,879.121845)">
                <path d="M1271.508,1525.208C1271.508,1525.208 1202.369,1525.208 1203.604,1590.026C1203.604,1590.026 1206.69,1659.473 1290.645,1620.274L1293.422,1625.213C1293.422,1625.213 1163.294,1652.863 1186.937,1707.623C1186.937,1707.623 1278.342,1862.574 1333.548,1613.735C1333.548,1613.735 1356.9,1525.745 1271.508,1525.208Z" style="fill:none;stroke:rgb(172,254,107);stroke-width:2.87px;"/>
            </g>
        </g>
        <g transform="matrix(1,0,0,1,0,2045.788454)">
            <g transform="matrix(0.348054,0,0,0.348054,1022.622652,-252.096748)">
                <path d="M1271.508,1525.208C1271.508,1525.208 1202.369,1525.208 1203.604,1590.026C1203.604,1590.026 1206.69,1659.473 1290.645,1620.274L1293.422,1625.213C1293.422,1625.213 1163.294,1652.863 1186.937,1707.623C1186.937,1707.623 1278.342,1862.574 1333.548,1613.735C1333.548,1613.735 1356.9,1525.745 1271.508,1525.208Z" style="fill:none;stroke:rgb(172,254,107);stroke-width:2.39px;"/>
            </g>
        </g>
        <g transform="matrix(1,0,0,1,0,2045.788454)">
            <g transform="matrix(-0.199899,0.199899,-0.199899,-0.199899,2107.978308,275.735626)">
                <path d="M1567.98,1509.522C1567.98,1509.522 1562.481,1510.899 1553.946,1513.5C1524.015,1522.623 1456.743,1546.803 1458.358,1579.451C1460.433,1621.409 1537.221,1691.829 1567.629,1512.456L1567.98,1509.522Z" style="fill:none;stroke:rgb(172,254,107);stroke-width:3.54px;"/>
            </g>
        </g>
    </g>
</svg>
