<?xml version="1.0" encoding="UTF-8" standalone="no"?>
<!DOCTYPE svg PUBLIC "-//W3C//DTD SVG 1.1//EN" "http://www.w3.org/Graphics/SVG/1.1/DTD/svg11.dtd">
<svg width="100%" height="100%" viewBox="0 0 922 951" version="1.1" xmlns="http://www.w3.org/2000/svg" xmlns:xlink="http://www.w3.org/1999/xlink" xml:space="preserve" xmlns:serif="http://www.serif.com/" style="fill-rule:evenodd;clip-rule:evenodd;stroke-linejoin:round;stroke-miterlimit:2;">
    <g transform="matrix(1,0,0,1,-6488.580785,-2903.911976)">
        <g transform="matrix(1,0,0,1,-8312.763716,2152.277848)">
            <g transform="matrix(-2.997997,0,0,-2.997997,19272.260259,6183.828226)">
                <path d="M1271.508,1525.208C1271.508,1525.208 1202.369,1525.208 1203.604,1590.026C1203.604,1590.026 1206.69,1659.473 1290.645,1620.274L1293.422,1625.213C1293.422,1625.213 1163.294,1652.863 1186.937,1707.623C1186.937,1707.623 1278.342,1862.574 1333.548,1613.735C1333.548,1613.735 1356.9,1525.745 1271.508,1525.208Z" style="fill:rgb(160,249,129);"/>
            </g>
        </g>
        <g transform="matrix(1,0,0,1,-8312.763716,2152.277848)">
            <g transform="matrix(2.997997,0,0,2.997997,11251.52117,-3560.036173)">
                <path d="M1271.508,1525.208C1271.508,1525.208 1202.369,1525.208 1203.604,1590.026C1203.604,1590.026 1206.69,1659.473 1290.645,1620.274L1293.422,1625.213C1293.422,1625.213 1163.294,1652.863 1186.937,1707.623C1186.937,1707.623 1278.342,1862.574 1333.548,1613.735C1333.548,1613.735 1356.9,1525.745 1271.508,1525.208Z" style="fill:rgb(160,249,129);"/>
            </g>
        </g>
        <g transform="matrix(1,0,0,1,-8312.763716,2152.277848)">
            <g transform="matrix(-1.713101,2.05334,-2.05334,-1.713101,19197.178227,-869.036905)">
                <path d="M1488.388,667.231C1489.01,664.271 1463.482,671.62 1463.482,671.62C1463.482,671.62 1395.84,687.109 1393.917,712.937C1392.53,731.574 1417.504,754.071 1437.561,754.416C1471.237,754.997 1485.412,681.381 1488.388,667.231Z" style="fill:rgb(160,249,129);"/>
            </g>
        </g>
    </g>
</svg>
